<?xml version="1.0" standalone="no"?>
<!DOCTYPE svg PUBLIC "-//W3C//DTD SVG 20010904//EN"
 "http://www.w3.org/TR/2001/REC-SVG-20010904/DTD/svg10.dtd">
<svg version="1.0" xmlns="http://www.w3.org/2000/svg"
 width="1500.000000pt" height="1500.000000pt" viewBox="0 0 1500.000000 1500.000000"
 preserveAspectRatio="xMidYMid meet">

<g transform="translate(0.000000,1500.000000) scale(0.100000,-0.100000)"
fill="#000000" stroke="none">
<path d="M6250 13205 c-96 -19 -314 -60 -483 -92 l-308 -57 -377 -335 c-208
-185 -477 -416 -599 -514 -208 -167 -231 -189 -392 -374 -94 -108 -171 -199
-171 -202 0 -4 65 -42 144 -86 134 -74 147 -84 195 -148 29 -38 54 -74 57 -81
3 -7 -37 -107 -89 -222 l-94 -209 -41 -260 c-23 -143 -46 -316 -52 -385 -6
-69 -26 -206 -45 -305 -39 -205 -50 -407 -60 -1060 -5 -349 -7 -368 -42 -610
-35 -235 -37 -265 -38 -500 l0 -250 33 -110 c17 -61 32 -118 32 -127 0 -13
-17 -18 -82 -24 l-81 -9 -49 -115 c-26 -63 -47 -119 -45 -123 1 -5 22 40 47
99 24 60 47 114 52 120 5 7 41 15 81 18 69 7 74 6 129 -26 54 -31 59 -38 96
-123 22 -49 70 -182 107 -294 77 -234 72 -178 60 -636 -8 -277 1 -455 36 -742
14 -120 19 -226 19 -410 0 -206 3 -268 20 -358 11 -60 20 -115 20 -122 0 -9
-17 -14 -52 -15 l-53 -1 50 -6 50 -6 66 -295 c56 -252 80 -337 165 -583 l99
-289 271 -296 272 -297 513 -291 514 -292 410 -141 c358 -123 811 -261 863
-261 9 0 247 61 527 136 l510 137 283 166 c263 154 301 180 530 363 l247 196
108 146 c60 80 199 255 310 390 l202 245 108 278 c59 153 129 350 156 438 46
149 51 178 76 410 14 138 45 365 68 506 42 254 42 259 36 435 -10 268 -10 554
0 597 5 21 5 37 0 37 -5 0 -9 46 -9 103 0 77 9 146 37 285 l36 184 65 101 c36
56 92 152 125 212 33 61 67 114 75 119 9 5 32 25 51 44 39 37 14 24 -32 -17
l-29 -26 23 47 c26 55 33 -99 -57 1225 l-58 862 22 213 c36 334 54 418 129
591 l64 148 -3 237 -3 237 -109 280 -108 280 -297 444 -296 444 -370 247
c-299 200 -772 490 -1182 725 -31 18 -47 18 -345 7 -274 -11 -356 -18 -660
-59 l-348 -47 -162 52 -163 52 -315 5 -315 5 -175 -35z m2788 -2314 l263 -38
132 -130 c73 -71 153 -149 179 -172 27 -26 89 -110 155 -213 l108 -171 135
-91 135 -91 69 -225 68 -225 14 -380 c16 -454 45 -754 98 -989 20 -87 36 -167
36 -176 0 -15 -7 -17 -47 -13 -123 12 -181 24 -357 77 -104 31 -202 56 -218
56 -25 0 -31 7 -52 53 -35 80 -82 104 -226 117 -84 7 -142 19 -238 51 -120 39
-133 41 -242 40 -205 -2 -264 -8 -635 -69 -160 -27 -207 -36 -300 -59 -108
-26 -124 -36 -167 -102 -20 -33 -28 -57 -28 -90 1 -77 16 -131 44 -160 l27
-28 -48 -38 c-26 -21 -54 -43 -61 -48 -8 -6 -29 -2 -63 13 -46 19 -70 22 -223
23 -94 1 -243 -2 -331 -7 l-160 -9 -64 39 c-35 22 -68 46 -72 54 -4 8 -20 60
-34 115 -36 132 -67 166 -220 239 -147 71 -177 84 -265 115 l-75 26 -355 -3
c-299 -3 -370 -6 -450 -22 -117 -23 -194 -43 -241 -64 -40 -17 -100 -80 -129
-136 l-18 -36 -254 -27 c-139 -15 -315 -38 -392 -52 -76 -14 -140 -24 -142
-23 -5 6 34 387 65 623 17 128 35 337 42 470 12 230 14 249 59 440 37 155 59
227 101 320 47 108 289 535 326 576 8 9 91 68 184 130 l170 113 227 32 c516
75 1204 123 2002 140 188 4 479 18 690 34 201 15 399 28 440 28 41 1 193 -16
338 -37z m1969 -3528 c-2 -21 -4 -4 -4 37 0 41 2 58 4 38 2 -21 2 -55 0 -75z
m-3449 85 c68 -15 115 -70 132 -154 10 -53 77 -298 117 -432 32 -107 107 -220
221 -333 59 -59 151 -152 204 -207 71 -73 133 -124 235 -193 131 -88 144 -95
258 -126 l120 -33 312 0 c354 0 443 9 673 67 l145 37 82 74 c71 63 94 93 164
210 94 158 152 313 219 582 54 220 58 228 59 100 1 -64 9 -141 21 -195 45
-207 110 -589 110 -644 0 -38 -22 -153 -59 -313 -33 -139 -74 -318 -91 -398
-18 -80 -52 -201 -76 -270 -25 -69 -55 -153 -67 -187 -21 -57 -70 -118 -507
-629 -267 -311 -491 -573 -497 -581 -22 -29 -11 -70 -149 571 l-37 169 21 42
21 43 -27 25 c-33 31 -197 132 -380 234 -279 156 -668 386 -693 410 l-26 24
-129 -21 c-71 -11 -185 -34 -254 -50 -215 -50 -216 -50 -543 19 -158 34 -296
61 -307 61 -15 0 -888 -471 -995 -537 -21 -12 -34 -32 -43 -63 -34 -114 -48
-157 -112 -335 -37 -104 -84 -238 -105 -297 l-37 -107 -103 122 c-57 67 -246
293 -421 502 l-316 380 -105 215 c-129 263 -190 439 -245 700 -35 168 -42 226
-52 415 l-12 220 24 50 c23 46 25 63 29 235 4 173 25 354 43 365 4 3 47 -154
95 -348 82 -330 91 -358 138 -442 92 -165 216 -282 367 -343 42 -17 152 -46
250 -66 289 -57 483 -55 870 10 146 25 164 30 300 94 80 37 155 70 167 74 32
10 186 185 330 374 107 142 132 181 182 295 190 428 229 507 290 580 17 21
111 24 189 5z m-3291 -925 c-3 -10 -5 -4 -5 12 0 17 2 24 5 18 2 -7 2 -21 0
-30z m13 -43 c0 -11 -4 -20 -9 -20 -5 0 -7 9 -4 20 3 11 7 20 9 20 2 0 4 -9 4
-20z m2020 -2193 c30 -23 102 -84 160 -137 231 -208 223 -203 318 -225 69 -16
87 -24 92 -40 3 -12 66 -125 140 -253 l135 -233 173 -130 c95 -72 179 -132
185 -135 19 -7 324 181 397 244 294 255 292 254 330 349 26 67 35 107 38 169
l4 82 102 48 c55 26 135 70 176 97 41 28 122 79 180 113 l105 62 23 -56 c54
-128 82 -242 82 -331 0 -82 -4 -97 -76 -302 l-76 -216 -71 -31 c-426 -185
-413 -181 -693 -252 -149 -39 -279 -70 -289 -70 -10 0 -65 18 -121 40 -56 22
-107 40 -111 40 -5 0 -41 -20 -79 -44 l-69 -43 -70 8 c-38 4 -131 8 -206 8
l-136 1 -79 48 c-370 224 -470 294 -649 454 l-180 159 -67 152 c-37 84 -68
159 -68 167 0 8 9 51 21 96 l21 80 120 77 120 76 32 -16 c17 -8 56 -34 86 -56z"/>
<path d="M6723 6211 c-43 -21 -100 -49 -126 -61 -107 -49 -200 -171 -214 -280
-5 -38 -3 -45 65 -190 9 -19 47 -66 84 -105 38 -38 80 -82 95 -98 14 -15 28
-25 31 -23 6 7 -41 64 -116 138 -72 71 -101 119 -101 169 1 19 -2 57 -6 84 -9
66 18 126 88 195 65 62 272 170 328 170 41 0 71 23 43 34 -40 15 -95 5 -171
-33z"/>
<path d="M8205 6110 c-8 -12 32 -70 48 -70 7 0 35 -11 64 -24 91 -43 153 -167
138 -280 -3 -31 -11 -58 -16 -61 -5 -4 -9 -14 -9 -25 0 -27 -157 -170 -228
-208 -61 -33 -84 -52 -61 -52 14 0 91 43 129 72 14 11 59 52 100 92 41 40 82
75 91 79 24 8 59 88 59 134 0 48 -23 106 -74 186 -38 60 -88 102 -168 143 -52
27 -64 29 -73 14z"/>
<path d="M6624 5725 c-8 -19 13 -45 36 -45 9 0 28 -8 41 -18 13 -10 77 -47
142 -82 82 -44 127 -75 148 -102 l31 -38 75 5 c54 3 82 10 104 25 16 12 29 23
29 26 0 19 -35 77 -71 117 -37 40 -57 52 -129 77 -137 47 -393 69 -406 35z"/>
<path d="M7865 5685 c-111 -43 -149 -63 -181 -96 -21 -22 -24 -32 -19 -63 6
-31 12 -36 42 -42 100 -19 311 45 402 121 17 15 47 31 66 36 41 12 47 39 13
63 -17 12 -48 16 -128 16 -95 -1 -114 -4 -195 -35z"/>
<path d="M11210 7286 c13 -17 43 -51 66 -76 23 -25 44 -54 47 -65 5 -20 5 -20
6 0 1 13 -27 49 -71 96 -40 42 -62 62 -48 45z"/>
<path d="M11180 7075 c-17 -25 -39 -53 -49 -63 -10 -9 -22 -27 -25 -39 -4 -11
-23 -34 -44 -49 -108 -82 -176 -154 -144 -154 4 0 30 22 57 48 74 71 182 152
202 152 23 0 33 -8 64 -50 44 -59 57 -93 68 -174 17 -120 13 -215 -14 -362
-27 -147 -36 -272 -20 -276 6 -2 11 17 13 42 1 25 14 115 29 200 23 139 25
172 20 325 -5 158 -8 175 -35 240 -16 39 -35 95 -42 125 -7 30 -14 61 -16 68
-7 25 -34 11 -64 -33z"/>
<path d="M11332 7105 c0 -11 4 -31 8 -45 6 -20 8 -21 8 -5 0 11 -4 31 -8 45
-6 20 -8 21 -8 5z"/>
<path d="M3790 7014 c-13 -34 -13 -36 14 -91 57 -115 72 -309 40 -501 -13 -76
-14 -100 -5 -115 15 -23 7 -89 -20 -186 -32 -111 -23 -280 20 -363 47 -92 114
-179 154 -199 23 -12 52 -30 64 -41 13 -12 29 -18 38 -14 14 5 12 10 -12 30
-16 13 -47 34 -70 45 -49 26 -90 81 -150 201 -38 77 -45 231 -15 352 12 49 23
134 26 208 3 69 10 143 16 165 5 22 10 94 10 161 0 66 3 123 6 127 4 3 19 0
35 -8 15 -8 38 -15 51 -15 13 0 39 -11 58 -23 36 -25 60 -25 60 -2 0 7 -10 19
-21 27 -12 7 -31 30 -43 49 -36 61 -126 178 -153 199 -14 11 -41 20 -60 20
-27 0 -35 -5 -43 -26z"/>
<path d="M11352 7015 c0 -11 4 -31 8 -45 6 -20 8 -21 8 -5 0 11 -4 31 -8 45
-6 20 -8 21 -8 5z"/>
<path d="M3662 6824 c-1 -109 -8 -200 -18 -248 -8 -42 -14 -82 -12 -88 2 -6
12 33 22 88 13 75 17 137 14 259 l-4 160 -2 -171z"/>
<path d="M11376 6895 c3 -27 10 -75 14 -105 8 -48 8 -45 4 22 -3 43 -10 90
-14 105 -7 21 -8 14 -4 -22z"/>
<path d="M11403 6695 c0 -22 2 -30 4 -17 2 12 2 30 0 40 -3 9 -5 -1 -4 -23z"/>
<path d="M11095 6667 c-4 -13 3 -58 14 -100 11 -42 23 -105 26 -139 4 -35 15
-108 25 -163 10 -55 27 -187 36 -294 17 -185 17 -196 0 -265 -28 -110 -67
-183 -145 -269 -39 -43 -71 -87 -71 -98 0 -28 48 -119 63 -119 13 0 37 92 37
143 0 17 13 42 34 64 41 47 76 110 76 140 0 13 9 56 20 95 11 41 20 103 20
143 0 99 -27 387 -45 470 -7 39 -17 101 -21 140 -3 38 -14 101 -25 140 -10 38
-19 82 -19 97 0 35 -18 46 -25 15z"/>
<path d="M11417 6545 c4 -105 -1 -156 -52 -485 -5 -35 -5 -35 5 -5 16 51 60
374 59 439 0 33 -4 84 -9 111 -5 34 -6 14 -3 -60z"/>
<path d="M3622 6450 c0 -14 2 -19 5 -12 2 6 2 18 0 25 -3 6 -5 1 -5 -13z"/>
<path d="M3612 6400 c0 -14 2 -19 5 -12 2 6 2 18 0 25 -3 6 -5 1 -5 -13z"/>
<path d="M3602 6350 c0 -14 2 -19 5 -12 2 6 2 18 0 25 -3 6 -5 1 -5 -13z"/>
<path d="M3592 6300 c0 -14 2 -19 5 -12 2 6 2 18 0 25 -3 6 -5 1 -5 -13z"/>
<path d="M3580 6234 c0 -21 4 -45 9 -53 5 -8 7 5 4 35 -7 61 -13 70 -13 18z"/>
<path d="M3600 6158 c0 -4 13 -42 30 -85 36 -95 146 -490 165 -593 14 -73 14
-74 9 -15 -6 75 -114 476 -160 598 -32 84 -44 109 -44 95z"/>
<path d="M11346 5984 c-4 -20 -5 -38 -3 -40 3 -3 8 11 11 32 4 20 5 38 3 40
-3 3 -8 -11 -11 -32z"/>
<path d="M11326 5898 c-4 -18 -13 -87 -21 -153 -8 -66 -17 -131 -20 -145 l-6
-25 12 25 c6 14 17 79 24 145 8 66 17 135 21 153 3 17 4 32 2 32 -3 0 -9 -15
-12 -32z"/>
<path d="M10904 5702 c-40 -37 -79 -82 -88 -100 -13 -26 -21 -31 -39 -27 -12
3 -29 0 -39 -7 -15 -12 -14 -16 9 -52 l26 -40 40 45 c21 24 75 80 118 124 64
65 77 84 73 103 -4 12 -11 22 -18 22 -6 0 -43 -31 -82 -68z"/>
<path d="M11261 5524 c-7 -25 -10 -48 -8 -51 3 -2 10 17 16 43 7 25 10 48 8
51 -3 2 -10 -17 -16 -43z"/>
<path d="M11230 5409 c-7 -30 -16 -167 -20 -318 -4 -146 -10 -277 -14 -291 -3
-14 0 -9 7 10 10 25 16 111 20 300 3 150 11 282 17 303 6 22 9 41 7 43 -3 3
-10 -18 -17 -47z"/>
<path d="M3812 5370 c0 -19 2 -27 5 -17 2 9 2 25 0 35 -3 9 -5 1 -5 -18z"/>
<path d="M3822 5305 c0 -16 2 -22 5 -12 2 9 2 23 0 30 -3 6 -5 -1 -5 -18z"/>
<path d="M3832 5240 c0 -19 2 -27 5 -17 2 9 2 25 0 35 -3 9 -5 1 -5 -18z"/>
<path d="M3843 5140 c0 -36 2 -50 4 -32 2 17 2 47 0 65 -2 17 -4 3 -4 -33z"/>
<path d="M3832 5045 c0 -16 2 -22 5 -12 2 9 2 23 0 30 -3 6 -5 -1 -5 -18z"/>
<path d="M3816 4964 c-11 -80 -8 -89 67 -214 l72 -122 92 -54 c76 -45 98 -54
135 -52 l43 1 -47 6 c-30 4 -77 24 -130 55 l-84 48 -73 122 -73 121 7 67 c7
77 1 92 -9 22z"/>
<path d="M11155 4676 l-28 -94 -93 -82 c-52 -45 -94 -85 -94 -88 0 -6 11 3
116 96 80 71 80 72 108 163 15 50 25 93 23 95 -2 3 -17 -38 -32 -90z"/>
<path d="M10541 4486 c9 -9 201 -78 205 -74 2 3 -40 21 -94 41 -92 34 -121 43
-111 33z"/>
</g>
</svg>
